<svg width="800" height="719" viewBox="0 0 800 719" fill="none" xmlns="http://www.w3.org/2000/svg">
<path d="M488 71.9999C488 76.5999 489.6 78.8999 494.3 81.0999C500.5 83.8999 507.5 83.5999 510.6 80.4999C513.7 77.3999 513.4 74.9999 509.8 73.7999C507.7 73.0999 506.8 73.2999 504.7 75.3999C501.1 78.9999 495.8 76.8999 494.8 71.4999C494.6 70.0999 493.6 69.3999 491.2 69.1999C488.2 68.8999 488 69.0999 488 71.9999Z" fill="black"/>
<path d="M409.5 75.2C408.4 78.6 406.3 119.6 407.1 120.5C407.7 121 412.9 121.6 418.8 121.8C427.5 122 430.1 121.8 432.9 120.3C442.8 115.1 443.5 101.1 434.3 95.7C432.5 94.7 428 93.5 424.3 93.2L417.6 92.5L417.9 83.9C418.1 75.6 418.1 75.3 415.8 74.7C412.2 73.7 410 73.9 409.5 75.2ZM425.7 100.6C429.2 101.3 431 103.8 431 108C431 113.1 428.4 115 421.3 115H416V110.7C416 108.4 416.3 104.9 416.6 102.9C417.2 99.2 418 99 425.7 100.6Z" fill="black"/>
<path d="M368.5 78.1999C364.1 78.6999 360.2 79.4999 359.8 79.8999C358.9 80.6999 363.9 123.2 365 125C366 126.7 384.8 123.8 389.6 121.3C399 116.4 399 102.1 389.5 98.9999L386.2 97.8999L388.6 95.4999C392.8 91.2999 391.4 81.8999 386.2 79.0999C383.2 77.4999 376.7 77.1999 368.5 78.1999ZM379.8 85.5999C381.3 86.5999 382 88.0999 382 90.4999C382 94.3999 379.7 96.3999 373.9 97.3999L370.3 97.9999L369.6 93.3999C368.6 86.0999 368.8 85.1999 371.3 84.6999C375.7 83.7999 377.6 83.9999 379.8 85.5999ZM385.3 105.8C386.3 106.7 387 108.7 387 110.6C387 114.7 384.3 116.7 377.7 117.6C372.4 118.4 372.5 118.5 371.6 109.8L371 104.1L375.2 103.8C380.6 103.4 383.1 103.9 385.3 105.8Z" fill="black"/>
<path d="M449.5 78.2C449.1 79.6 446 123.3 446.3 123.6C446.4 123.7 448.2 124.1 450.2 124.5C453.6 125.1 454.1 125 454.8 122.9C456 119.8 458.5 80.7 457.7 78.6C456.9 76.7 450.1 76.4 449.5 78.2Z" fill="black"/>
<path d="M472.7 101.8C469.6 113.4 467 123.6 467 124.5C467 125.9 470.6 128 473 128C473.5 128 480.1 122.6 487.6 116C495.1 109.4 501.5 104.1 501.7 104.4C501.9 104.6 500.5 110.6 498.5 117.8C496.6 124.9 495 131.5 495 132.3C495 133.8 497.8 135 501.5 135C503.3 135 504.2 132.4 509.4 112.9C515.7 89 515.7 89 509.7 89C507.5 89 504.1 91.4 494.7 99.7C477.9 114.4 478.8 113.7 479.4 111.9C482.3 103.4 487 83.6 486.2 82.8C485.7 82.3 483.8 81.7 481.8 81.4L478.4 80.8L472.7 101.8Z" fill="black"/>
<path d="M319.1 88.6999C308.9 92.2999 303.5 102.8 305.9 114.2C308.3 124.9 312.7 132.1 318.7 134.6C328.2 138.7 343.8 133.2 348.4 124.2C353.9 113.4 348.1 93.7999 337.8 88.3999C334.3 86.5999 324.7 86.6999 319.1 88.6999ZM333.8 96.6999C338.9 99.8999 342.9 116.5 340.1 121.9C338.3 125.3 333 128 328.3 128C325 128 323.5 127.4 321.1 124.9C317.6 121.4 315 113.8 315 106.9C315 96.7999 325.4 91.1999 333.8 96.6999Z" fill="black"/>
<path d="M280.5 104C274.5 106.7 269.4 109.4 269.2 110C268.8 111.1 285.5 149.7 287.1 151.4C288.2 152.6 295 149.6 295 148C295 147.4 291.6 139.4 287.5 130.3C283.4 121.1 280 113.3 280 113C280 112.6 283.4 110.9 287.5 109.1C294.1 106.1 295 105.5 294.4 103.6C293 98.8 292.1 98.8 280.5 104Z" fill="black"/>
<path d="M554.7 113.6C542.2 131.7 534.4 139.6 530.3 138.5C528.2 138 527.6 138.9 523.8 146.6C519.6 154.9 519.6 155.2 521.4 156.6C524.9 159.1 526.8 158.3 529.5 153L532 148L546 155C553.7 158.9 560 162.4 560 163C560 163.5 559 166 557.8 168.5C555.9 172.4 555.8 173.2 557 174.4C560.6 177.9 562.3 176.8 566.8 168.3L571 160.1L568.6 158.4L566.1 156.8L574.5 139.9C579.2 130.6 583 122.6 583 122C583 121.2 560.1 109 558.5 109C558.2 109 556.5 111.1 554.7 113.6ZM567.5 121.2C570.8 122.8 572 123.9 571.7 125.2C570.8 128.5 557.9 152 556.9 152C556.4 152 552.5 150.2 548.4 147.9L541 143.8L545.5 139.8C547.9 137.6 552.7 132.1 556 127.4C559.4 122.8 562.3 119 562.5 119C562.8 119 565 120 567.5 121.2Z" fill="black"/>
<path d="M247.2 122.1C242.8 123.4 229 131.9 229 133.2C229 134.1 245.8 161.7 252.2 171.4C253.1 172.7 260 169.5 260 167.8C260 167.1 258.2 163.7 256 160.3L252.1 154.1L257.1 150.5C265.7 144.4 267.8 136.2 263 128.2C259.5 122.5 253.5 120.2 247.2 122.1ZM253.9 132.6C255 134 256.2 136 256.5 137.1C257.4 139.7 255.1 143.8 251.4 146.1L248.3 148L243.9 140.8C241.5 136.8 240 133.5 240.6 133.3C241.2 133.1 242.6 132.3 243.6 131.5C246.7 129.1 251.6 129.6 253.9 132.6Z" fill="black"/>
<path d="M599.8 140.1C594.4 141.3 588.5 145.5 584.5 151C575.8 162.9 575.8 171.8 584.6 180.3C595.4 190.8 607.6 190.6 618 179.8C623.5 174 627 166.7 627 161C627 148.9 611.9 137.4 599.8 140.1ZM611 149.5C615 151.6 618 155.8 618 159.4C618 166.5 608.2 178.3 601.3 179.6C596.8 180.4 591 177.3 588.6 172.8C586.8 169.7 586.8 168.7 587.8 165.2C589.3 160.1 594.5 153.3 598.9 150.3C602.8 147.6 606.9 147.4 611 149.5Z" fill="black"/>
<path d="M204.5 151.7C191.7 158.5 186.8 170.3 192 181.7C196.1 190.9 207.3 199.9 214.5 200C222.7 200 234.5 190.4 236.9 181.8C238 177.9 238 176.4 236.6 171.7C234.6 164.9 228.5 156.9 222.2 152.9C216.9 149.5 209.5 149 204.5 151.7ZM220.7 164.2C225.4 168.8 229 175.2 229 179.1C229 184.5 222.1 191 216.3 191C211.2 191 200.9 180.7 198.9 173.6C197.7 169.2 199.6 164.1 203.6 161.3C209.5 157.1 214.3 157.9 220.7 164.2Z" fill="black"/>
<path d="M629.3 187.5C620.1 195.5 612.4 202.4 612.2 202.9C611.9 203.9 615.9 209 617 209C617.5 209 624.4 203.4 632.2 196.6C640 189.7 646.6 184.3 646.8 184.5C647 184.7 642.9 192.2 637.6 201.2C632.4 210.1 627.9 218.2 627.5 219.1C626.8 221 630.6 226 632.8 226C633.6 226 642.4 222.8 652.3 219C662.2 215.1 670.4 212.1 670.6 212.3C670.8 212.5 664.7 218.1 657 224.8C649.3 231.5 643 237.6 643 238.3C643 239.1 644.1 240.7 645.5 242L647.9 244.3L655.7 237.5C660 233.7 667.7 227.1 672.8 222.7C677.8 218.3 682 214.1 682 213.4C682 211 674.9 204 672.5 204C671.3 204 663.6 206.5 655.5 209.5C647.3 212.5 640.5 214.8 640.3 214.6C640.1 214.4 643.6 207.7 648 199.6C656.8 183.9 656.9 183.4 652.3 178C647.2 171.8 647.7 171.6 629.3 187.5Z" fill="black"/>
<path d="M165.5 190.2C160.1 196.4 155 202.3 154.2 203.2C152.9 204.8 152.9 205.2 154.5 207C157 209.8 157.8 209.6 162.7 204.8C166.4 201.1 167.1 200.8 168.6 202.1C169.6 202.9 176.2 208.6 183.4 214.8L196.4 226L199.2 223.3C200.8 221.8 201.9 220 201.8 219.4C201.6 218.7 195.4 212.9 188 206.5C180.6 200.1 174.1 194.4 173.6 193.9C173 193.3 173.8 191.8 175.6 189.8C181.3 183.6 181.3 183.4 178.9 181.1C177.6 179.9 176.3 179 175.9 179C175.6 179 170.9 184.1 165.5 190.2Z" fill="black"/>
<path d="M414 195.5C414 197.5 414.7 200.7 415.5 202.7C417 206.3 417 206.6 414.1 212.5C412.5 215.8 409.3 223.9 407 230.5C397.7 257 391.7 263.2 375.4 263.1C365.8 263.1 356.4 260.8 347.7 256.4C339.4 252.2 334.6 249 319.5 237C301.5 222.8 295.7 219.8 285 219.9C275.9 219.9 273.5 221 266 228.8C257.9 237.2 251.2 240.7 234.6 245.4C222.2 248.9 221.6 249.2 215.3 255C211 258.9 205.1 262.8 198 266.5C176.6 277.4 171.3 288 167 328.5C165.4 343.9 164.5 347 156.9 364.8C145.8 390.6 146.3 384.8 152.9 414.9C156.1 429.2 158.9 441.2 159.2 441.6C159.6 441.9 161.3 441.9 163 441.5C165.8 440.9 166 440.7 164.6 439.2C163.8 438.2 162.6 436.1 162 434.5C160.1 429.8 159.2 413.4 160.1 403.2C161.4 389.3 165.2 379.6 176.9 360.1C182.5 350.8 187 342.7 187 342.1C187 341.5 184.4 337 181.2 332.2C173.1 320.1 173.3 320.6 176.1 322C183.5 326 195.1 341.8 197.1 350.5C198.7 357.8 197 368.7 192.5 379.6C186.3 394.5 186.8 404.8 194.1 415.2C196.7 419 198.7 423.4 200 428.6C201.1 432.9 202.1 436.5 202.3 436.6C202.4 436.8 205.6 437.2 209.3 437.6C217 438.4 217.4 437.8 214.1 431.2C213.1 429.2 211.2 423.7 209.9 419C207.8 411.5 207.5 408.5 207.5 393V375.5L211.7 364.3C216.3 352 219 339.8 219 331.3C219 314.3 228.2 297.5 241.3 290.8C248.1 287.4 247.6 289.5 239.9 297.6C227.5 310.6 226.4 315.1 234.4 318.9C236.8 320.1 242.1 321.7 246.1 322.5C254.6 324.2 286.7 326.7 287.6 325.7C287.9 325.4 287.4 322.8 286.5 320C285.6 317.2 285 314.6 285.3 314.4C286.3 313.4 293 323.3 294.1 327.4C294.7 329.7 295 336.1 294.8 342.5C294.4 353.2 294.2 353.7 289.7 363C284.3 373.9 282.7 381.2 281.1 400.9C280.2 413.6 280 414.5 277 418.4C275.3 420.7 273 424.3 272 426.5L270.1 430.5L275.4 430.8C278.3 431 281.8 430.6 283.3 430.1C285.7 429.2 286 428.5 286 424.1C286 412.8 305.7 357.6 320.5 327.5C330.8 306.6 334.8 301.7 346.2 296C354 292.1 357.1 291.2 356.9 292.7C356.9 293.2 354.5 296.4 351.5 300L346.1 306.5L349.8 306.8C355.5 307.3 374 305.2 382.7 303C406.9 296.9 418.8 284.3 426.5 257C429.6 245.8 432.1 239.8 435.6 235.3C439.5 230.2 440.4 231 439.5 239.2C438.6 248.6 436.9 253.5 431.3 262.5C424 274.3 424 274.3 424 336.3C424 397.3 423.6 394 431 400.3C434.9 403.6 441.4 406.2 449 407.4C452.4 408 452.6 408.2 457.4 420.5C462.2 432.6 462.4 432.9 464.9 432.3C476 429.5 476.5 429.3 478.1 426.4C479.7 423.7 479.7 422.7 478 411.5C477 404.9 476.4 399.3 476.7 399.1C476.9 398.8 478.4 399.4 479.9 400.3C481.5 401.2 483.1 402 483.3 402C483.6 402 482.3 398.6 480.4 394.4C477.6 388.2 477 385.7 477 379.9C477 372.3 477.5 371.8 482.5 374.9C488.6 378.5 494.8 394.8 496.5 411.5C496.8 414.8 497.4 419.2 497.7 421.3L498.2 425.2L501.7 421.8L505.2 418.5L504.6 409.5C503.9 398.3 499.3 379.6 494.5 368.7C489.5 357.3 489.4 357 493.2 361.5C501.4 371.3 501.7 371.5 503.4 370.1C505.7 368.2 505.4 365.2 502.1 356.3C500.3 351.4 497.9 340.4 495.6 326.8C493.6 314.9 491.3 303 490.6 300.5C489.8 298 486.4 291.2 483 285.5C478.2 277.4 476.2 272.8 474.3 265.3C471.6 254.4 470.3 251.5 465.9 246.5C462.2 242.3 461.1 242.2 457 245.7C453 249 452.4 250.7 449.5 265.4C447.2 277 447.1 277.3 441.1 285.1C437.7 289.4 435 293.1 435 293.4C435 293.6 438.5 294.1 442.8 294.5C453.9 295.4 463.9 297 464.6 298.1C464.9 298.6 460.9 299.1 455.3 299.2C438.8 299.7 433.4 299.4 430.1 298.1C427.2 296.8 427 296.4 427 291.6C427 283.5 429.5 275.5 436.3 262.1L442.5 249.8L442.3 240.1C442.3 234.2 441.6 228.8 440.6 226.2C439.4 222.9 439.4 221.8 440.3 221.5C441 221.3 443.2 220.6 445.2 220C447.2 219.4 450.5 217.8 452.5 216.5C454.4 215.1 457.3 213.8 458.8 213.4C467.3 211.5 468 211.1 468 207C468 203.3 467.8 203.1 463.3 201.6C453.3 198.3 441.8 196.8 432.4 197.4C424.8 197.9 423 197.8 422 196.4C420.7 195 415.8 192 414.5 192C414.2 192 414 193.6 414 195.5ZM443.8 339.4C455.9 344 463.5 348 470.5 353.3C481.1 361.3 480.3 362.4 468 356.9C457 352 445.5 348.2 444.5 349.2C444.2 349.5 444.9 351.7 446.2 354.1C448.4 358.2 448.5 359.8 448.8 380.4L449.1 402.2L444.3 401.6C437.4 400.6 431.1 397.1 428.8 393C427.1 389.9 426.9 388.1 427.4 377.5C427.7 370.5 428.7 362.2 429.9 357.5C431 353.1 432.2 346.5 432.6 342.7C433 339 433.7 336 434.2 336C434.7 336 439 337.5 443.8 339.4Z" fill="black"/>
<path d="M147.2 232C145.9 232.6 144.3 234.6 143.4 236.5C139.7 245.5 150.7 253.4 157.5 246.5C159.2 244.9 160 243 160 240.6C160 235.8 159.2 234.1 155.9 232.5C152.7 230.8 150.5 230.7 147.2 232Z" fill="black"/>
<path d="M677.2 239.5C672.9 243.1 672.7 248.9 676.6 252.5C682.4 257.9 691.5 254 691.5 246.1C691.5 241.1 688.9 238.2 683.9 237.4C681.1 236.9 679.8 237.3 677.2 239.5Z" fill="black"/>
<path d="M508.1 275.1C505.6 277.8 505.5 278.9 507.7 279.7C509 280.2 508.9 280.5 506.9 281.3C504.7 282.1 504.9 282.3 509.9 284C513.9 285.4 516.3 287 518.9 290.1C520.8 292.4 523.8 294.9 525.6 295.6L528.8 296.9L526.9 304.2C525.8 308.2 525.1 313.8 525.2 316.7C525.4 321.8 525.3 322 517.9 330C510.8 337.9 510.3 338.2 505 338.9C499.8 339.6 499.7 340 504.6 341.5C507.5 342.4 513.5 338.9 520.1 332.4L526.7 325.8L529.8 331.3C531.5 334.3 534.7 338.2 537 340C540.8 343 552.9 348.8 562.5 352.1C568.9 354.4 574.6 360.5 575.9 366.8C576.5 369.7 578.2 374.4 579.6 377.2C581.5 380.9 582.2 383.9 582.1 387.4C582 393 578.1 408.5 574.6 417.1C572.5 422.3 572.4 423 573.9 423C576.2 423 586.3 402.4 588.5 393.2C589.4 389.3 590.3 386 590.5 386C590.6 386 592.3 390.6 594.3 396.2C596.8 403.4 598.1 409.1 598.5 415.2C599.2 424 600.4 426.5 601.4 421.2C603 412.7 603.1 403.6 601.5 393.2C599.8 381.7 599.9 380.3 602.7 373.7C604.5 369.6 606 370.3 606 375.1C606 378.1 605.6 378 627.1 380.1C642.7 381.7 649.1 380.5 652.6 375.3L654.7 372.2L655.8 383.6C656.6 392.3 657.6 396.7 660 402.2C661.6 406.2 663 410.7 663 412.3C663 416.3 660.5 420.8 655.2 426.2C650.9 430.6 650.8 431 652.9 431C655.7 431 665.2 424.1 667.7 420.3C669.2 418 669.4 415.5 669.2 402.7L668.9 387.7L671.4 390.7C672.8 392.4 674 394.4 674 395.2C674 396 676 400.8 678.5 405.9C681.1 411.3 683 416.5 683 418.5C683 424 681 431.8 679.4 432.4C677.4 433.2 677.6 435 679.8 435C682.7 435 686.9 426.2 688.1 417.6C689 411 688.8 408.5 687.1 399.8C685.8 393.8 685.1 386.5 685.2 381.6C685.3 375 685.4 374.3 685.9 378L686.5 382.5L687.3 378.5C688.5 371.4 688.1 363.7 686.1 359.5C685 357.3 680.3 351.2 675.5 346C670.8 340.8 664.1 332.5 660.7 327.6C649.1 310.8 644.3 307.1 629.7 303.5L623.1 301.8L602.4 312.4C583.7 321.9 581.1 323 576.3 323C570.1 323 552.5 317.7 551.2 315.4C550.8 314.6 550.8 310.7 551.2 306.7C552.1 299.3 551.8 290.1 550.6 286.4C549.9 284.6 550.3 284.2 553.2 283.6C555 283.3 557.1 282.1 557.8 281C559 279 558.9 278.9 551.8 279.1C546.3 279.2 543.4 278.7 540 277.2C537.5 276.1 532.4 274.9 528.5 274.6C524.7 274.2 519 273.7 515.9 273.4C510.9 272.9 510 273.1 508.1 275.1Z" fill="black"/>
<path d="M342.5 314.9C340.3 315.3 338 315.9 337.3 316.3C336 317.1 321.7 338.6 320.7 341.3C320.3 342.5 322.1 346 326.4 352.3C335.8 366.1 336.3 367.4 335.7 374.1C335.3 377.2 333.4 384.2 331.5 389.6C329.5 395.1 326.5 404.4 324.9 410.5C323.3 416.5 321.7 422.3 321.4 423.4C320.8 425.1 321.2 425.2 325.5 424.5C332.1 423.6 333 423.1 333 420.5C333 415.5 338.1 398.6 344.4 383C348 374 351 365.2 351 363.5C351 361.7 349.8 357 348.4 352.9C346.6 347.8 345.6 342.6 345.3 335.8C344.8 326.4 344.8 326.1 347.9 320.7C349.6 317.7 351 315 351 314.6C351 313.9 348.1 314 342.5 314.9Z" fill="black"/>
<path d="M108 480.5V509H115.5H123V494.9C123 487.2 123.4 481 123.9 481.2C124.3 481.3 133.9 487.7 145.1 495.3L165.5 509.1L177.7 508.8L189.9 508.5L166.9 493.6C146.7 480.6 144.1 478.6 145.7 477.5C146.7 476.9 156.2 471 166.9 464.4L186.3 452.5L174.1 452.2L161.8 451.9L144 463.5C134.2 469.8 125.5 475.3 124.6 475.6C123.2 476.1 123 474.8 123 464.1V452H115.5H108V480.5Z" fill="black"/>
<path d="M213.7 479.9C204 495.3 196 508.1 196 508.4C196 508.7 199.6 509 203.9 509H211.8L215.6 503L219.5 497H239.7H259.9L263.5 503L267.1 509H275.5H283.9L265.8 480.5L247.7 452H239.5H231.4L213.7 479.9ZM246 475.5C248.8 479.9 251 483.8 251 484.2C251 484.6 245.8 485 239.4 485C229.4 485 227.9 484.8 228.4 483.5C230 479.4 239.4 466 240.2 466.8C240.6 467.2 243.3 471.2 246 475.5Z" fill="black"/>
<path d="M290 480.5V509H297.5H305V500V491H328.8C352.5 491 352.6 491 357.9 488.4C371.5 481.6 372.7 464.2 360.2 455.5L355.8 452.5L322.9 452.2L290 451.9V480.5ZM351.5 466.5C354.3 469.2 354.5 470.7 352.8 474.5C351 478.4 346.6 479.1 325 478.8L305.5 478.5L305.2 471.2L304.9 464H327H349.1L351.5 466.5Z" fill="black"/>
<path d="M385 479.7C375.4 494.9 367.4 507.7 367.2 508.2C367 508.6 370.5 509 374.9 509H383.1L386.8 503L390.5 497.1L410.7 497H431L434.7 503L438.5 509H446.8C454.4 509 455 508.9 454.1 507.2C453.5 506.3 445.5 493.6 436.2 479L419.3 452.5L410.9 452.3L402.5 452L385 479.7ZM417.2 475.3L422.9 484.5L411.3 484.8C404.9 484.9 399.5 484.9 399.3 484.6C398.8 484.2 410.2 466 411 466C411.3 466 414.1 470.2 417.2 475.3Z" fill="black"/>
<path d="M461 480.5V509H494.1C526.3 509 527.3 508.9 531.1 506.8C540.6 501.5 542.2 490 534.4 482.2L531 478.8L533.2 475.8C534.3 474.1 535.5 470.7 535.7 468.1C536.3 462.7 533.7 458 528.1 454.3C524.7 452 524.3 452 492.9 452H461V480.5ZM517.9 465.4C520.5 467.8 520.6 470.4 518 473C516.1 474.9 514.7 475 496.5 475H477V468.9V462.9L496.4 463.2C513.8 463.5 516 463.7 517.9 465.4ZM522.4 488.2C524.6 491.2 524.4 493.3 521.9 495.6C520 497.3 517.8 497.5 498.4 497.8L477 498.1V492.1V486H498.9C520.5 486 520.9 486 522.4 488.2Z" fill="black"/>
<path d="M566 476.6C557.5 490.2 549.4 503 548.1 505.1L545.8 509H554.1L562.5 508.9L566.2 503L569.9 497H590H610.1L613.8 503L617.5 509H625.8C633.4 509 634 508.9 633.1 507.2C632.6 506.3 624.5 493.6 615.3 479L598.4 452.5L589.9 452.3L581.5 452L566 476.6ZM596.3 475.2L602 484.5L590.4 484.8C584 484.9 578.6 484.9 578.3 484.7C577.9 484.2 589.2 466 590 466C590.3 466 593.1 470.2 596.3 475.2Z" fill="black"/>
<path d="M640 480.5V509H648H656V497.5V486H679.5H703V497.5V509H711H719V480.5V452H711H703V462.5V473H679.5H656V462.5V452H648H640V480.5Z" fill="black"/>
</svg>
